<svg xmlns="http://www.w3.org/2000/svg" width="512" height="512" viewBox="0 0 512 512">
<rect width="512" height="512" fill="#282828"/>
<rect x="66.12" y="263.80" width="14.14" height="187.20" rx="3.96" ry="3.96" fill="#F7F5F1"/>
<rect x="90.49" y="131.20" width="14.14" height="319.80" rx="3.96" ry="3.96" fill="#F7F5F1"/>
<rect x="114.87" y="263.80" width="14.14" height="187.20" rx="3.96" ry="3.96" fill="#F7F5F1"/>
<rect x="139.24" y="131.20" width="14.14" height="319.80" rx="3.96" ry="3.96" fill="#F7F5F1"/>
<rect x="163.62" y="263.80" width="14.14" height="187.20" rx="3.96" ry="3.96" fill="#F7F5F1"/>
<rect x="187.99" y="263.80" width="14.14" height="187.20" rx="3.96" ry="3.96" fill="#F7F5F1"/>
<rect x="212.37" y="131.20" width="14.14" height="319.80" rx="3.96" ry="3.96" fill="#F7F5F1"/>
<rect x="236.74" y="263.80" width="14.14" height="187.20" rx="3.96" ry="3.96" fill="#F7F5F1"/>
<rect x="261.12" y="263.80" width="14.14" height="187.20" rx="3.96" ry="3.96" fill="#F7F5F1"/>
<rect x="285.49" y="131.20" width="14.14" height="319.80" rx="3.96" ry="3.96" fill="#F7F5F1"/>
<rect x="309.87" y="263.80" width="14.14" height="187.20" rx="3.96" ry="3.96" fill="#F7F5F1"/>
<rect x="334.24" y="131.20" width="14.14" height="319.80" rx="3.96" ry="3.96" fill="#F7F5F1"/>
<rect x="358.62" y="263.80" width="14.14" height="187.20" rx="3.96" ry="3.96" fill="#F7F5F1"/>
<rect x="382.99" y="263.80" width="14.14" height="187.20" rx="3.96" ry="3.96" fill="#F7F5F1"/>
<rect x="407.37" y="131.20" width="14.14" height="319.80" rx="3.96" ry="3.96" fill="#F7F5F1"/>
<rect x="431.74" y="131.20" width="14.14" height="319.80" rx="3.96" ry="3.96" fill="#F7F5F1"/>
</svg>